<svg preserveAspectRatio="none" width="100%" height="100%" overflow="visible" style="display: block;" viewBox="0 0 36 36" fill="none" xmlns="http://www.w3.org/2000/svg">
<g id="bottom-menu__icon">
<path d="M0 18C0 8.05887 8.05887 0 18 0V0C27.9411 0 36 8.05887 36 18V18C36 27.9411 27.9411 36 18 36V36C8.05887 36 0 27.9411 0 18V18Z" fill="var(--fill-0, #EDA783)"/>
<g id="bottom-menu__icon_2">
<path d="M9.4399 20.605C10.6024 20.605 11.5448 19.6626 11.5448 18.5C11.5448 17.3375 10.6024 16.3951 9.4399 16.3951C8.27737 16.3951 7.33496 17.3375 7.33496 18.5C7.33496 19.6626 8.27737 20.605 9.4399 20.605Z" fill="var(--fill-0, white)"/>
<path d="M26.56 20.605C27.7225 20.605 28.665 19.6626 28.665 18.5C28.665 17.3375 27.7225 16.3951 26.56 16.3951C25.3975 16.3951 24.4551 17.3375 24.4551 18.5C24.4551 19.6626 25.3975 20.605 26.56 20.605Z" fill="var(--fill-0, white)"/>
<path d="M18.1403 20.605C19.3028 20.605 20.2452 19.6626 20.2452 18.5C20.2452 17.3375 19.3028 16.3951 18.1403 16.3951C16.9778 16.3951 16.0354 17.3375 16.0354 18.5C16.0354 19.6626 16.9778 20.605 18.1403 20.605Z" fill="var(--fill-0, white)"/>
</g>
</g>
</svg>
