<svg width="44" height="44" viewBox="0 0 44 44" fill="none" xmlns="http://www.w3.org/2000/svg">
<path fill-rule="evenodd" clip-rule="evenodd" d="M20.8825 12.224C21.296 11.23 22.704 11.23 23.1175 12.224L25.5391 18.0463C25.5493 18.0709 25.5725 18.0878 25.5991 18.0899L31.8847 18.5938C32.9578 18.6798 33.3929 20.019 32.5754 20.7193L27.7864 24.8216C27.7661 24.839 27.7573 24.8662 27.7634 24.8922L29.2266 31.0259C29.4763 32.073 28.3372 32.9007 27.4185 32.3396L22.0371 29.0526C22.0143 29.0387 21.9857 29.0387 21.9629 29.0526L16.5815 32.3396C15.6628 32.9007 14.5237 32.073 14.7734 31.0259L16.2366 24.8922C16.2427 24.8662 16.2339 24.839 16.2136 24.8216L11.4246 20.7193C10.6071 20.019 11.0422 18.6798 12.1153 18.5938L18.4009 18.0899C18.4275 18.0878 18.4507 18.0709 18.4609 18.0463L20.8825 12.224ZM21.9591 12.6282C21.953 12.632 21.9434 12.6395 21.9343 12.6614L19.5126 18.4837C19.3384 18.9027 18.9443 19.189 18.4919 19.2253L12.2063 19.7292C12.1826 19.7311 12.1725 19.738 12.167 19.7426C12.159 19.7492 12.1498 19.7611 12.1443 19.7782C12.1387 19.7953 12.1391 19.8103 12.1417 19.8204C12.1435 19.8274 12.1476 19.8388 12.1657 19.8543L16.9546 23.9565C17.2993 24.2518 17.4498 24.715 17.3445 25.1565L15.8814 31.2902C15.8759 31.3133 15.8793 31.325 15.8819 31.3317C15.8858 31.3413 15.8942 31.3537 15.9088 31.3643C15.9234 31.3749 15.9378 31.3791 15.9481 31.3798C15.9553 31.3803 15.9675 31.3799 15.9878 31.3675L21.3691 28.0805C21.7565 27.844 22.2435 27.844 22.6308 28.0805L28.0122 31.3675C28.0325 31.3799 28.0447 31.3803 28.0519 31.3798C28.0622 31.3791 28.0766 31.3749 28.0912 31.3643C28.1058 31.3537 28.1142 31.3413 28.1181 31.3317C28.1207 31.325 28.1241 31.3133 28.1186 31.2902L26.6555 25.1565C26.5502 24.715 26.7007 24.2518 27.0454 23.9565L31.8343 19.8543C31.8524 19.8388 31.8565 19.8274 31.8583 19.8204C31.8609 19.8103 31.8613 19.7953 31.8557 19.7782C31.8502 19.7611 31.841 19.7492 31.833 19.7426C31.8275 19.738 31.8174 19.7311 31.7937 19.7292L25.5081 19.2253C25.0557 19.189 24.6616 18.9027 24.4874 18.4837L22.0657 12.6614C22.0566 12.6395 22.047 12.632 22.0409 12.6282C22.0322 12.6226 22.018 12.6176 22 12.6176C21.982 12.6176 21.9678 12.6226 21.9591 12.6282Z" fill="#00F3EA" stroke="#00F3EA" stroke-width="0.659871" stroke-linecap="round" stroke-linejoin="round"/>
</svg>
