<svg preserveAspectRatio="none" width="100%" height="100%" overflow="visible" style="display: block;" viewBox="0 0 36 36" fill="none" xmlns="http://www.w3.org/2000/svg">
<g id="bottom-menu__btn-send">
<path d="M0 18C0 8.05887 8.05887 0 18 0V0C27.9411 0 36 8.05887 36 18V18C36 27.9411 27.9411 36 18 36V36C8.05887 36 0 27.9411 0 18V18Z" fill="var(--fill-0, #00A19B)"/>
<g id="bottom-menu__send-icon">
<path d="M17.0526 25.5789C17.0526 26.1022 17.4768 26.5263 18 26.5263C18.5232 26.5263 18.9474 26.1022 18.9474 25.5789V10.4211C18.9474 9.89784 18.5232 9.47368 18 9.47368C17.4768 9.47368 17.0526 9.89784 17.0526 10.4211V25.5789Z" fill="var(--fill-0, white)"/>
<path d="M24.9091 18.6699C25.279 19.0399 25.8789 19.0399 26.2488 18.6699C26.6188 18.2999 26.6188 17.7001 26.2488 17.3301L18.6699 9.75116C18.2999 9.38119 17.7001 9.38119 17.3301 9.75116L9.75116 17.3301C9.38119 17.7001 9.38119 18.2999 9.75116 18.6699C10.1211 19.0399 10.721 19.0399 11.0909 18.6699L18 11.7608L24.9091 18.6699Z" fill="var(--fill-0, white)"/>
</g>
</g>
</svg>
