<svg preserveAspectRatio="none" width="100%" height="100%" overflow="visible" style="display: block;" viewBox="0 0 44 44" fill="none" xmlns="http://www.w3.org/2000/svg">
<g id="bottom-menu__star-btn">
<path id="bottom-menu__icon" fill-rule="evenodd" clip-rule="evenodd" d="M20.8825 12.2242C21.296 11.2302 22.704 11.2302 23.1175 12.2242L25.5391 18.0464C25.5493 18.0711 25.5725 18.0879 25.5991 18.0901L31.8847 18.594C32.9578 18.68 33.3929 20.0192 32.5754 20.7195L27.7864 24.8218C27.7661 24.8392 27.7573 24.8664 27.7634 24.8924L29.2266 31.0261C29.4763 32.0732 28.3372 32.9009 27.4185 32.3397L22.0371 29.0528C22.0143 29.0389 21.9857 29.0389 21.9629 29.0528L16.5815 32.3397C15.6628 32.9009 14.5237 32.0732 14.7734 31.0261L16.2366 24.8924C16.2427 24.8664 16.2339 24.8391 16.2136 24.8218L11.4246 20.7195C10.6071 20.0192 11.0422 18.68 12.1153 18.594L18.4009 18.0901C18.4275 18.0879 18.4507 18.0711 18.4609 18.0464L20.8825 12.2242ZM21.9591 12.6283C21.953 12.6322 21.9434 12.6396 21.9343 12.6616L19.5126 18.4839C19.3384 18.9029 18.9443 19.1892 18.4919 19.2255L12.2063 19.7294C12.1826 19.7313 12.1725 19.7381 12.167 19.7427C12.159 19.7493 12.1498 19.7612 12.1443 19.7784C12.1387 19.7955 12.1391 19.8105 12.1417 19.8205C12.1435 19.8275 12.1476 19.839 12.1657 19.8544L16.9546 23.9567C17.2993 24.252 17.4498 24.7152 17.3445 25.1567L15.8814 31.2904C15.8759 31.3135 15.8793 31.3252 15.8819 31.3319C15.8858 31.3415 15.8942 31.3539 15.9088 31.3645C15.9234 31.3751 15.9378 31.3793 15.9481 31.38C15.9553 31.3804 15.9675 31.38 15.9878 31.3676L21.3691 28.0807C21.7564 27.8442 22.2435 27.8442 22.6308 28.0807L28.0122 31.3676C28.0325 31.38 28.0447 31.3804 28.0519 31.38C28.0622 31.3793 28.0766 31.3751 28.0912 31.3645C28.1058 31.3539 28.1142 31.3415 28.1181 31.3319C28.1207 31.3252 28.1241 31.3135 28.1186 31.2904L26.6555 25.1567C26.5502 24.7152 26.7007 24.252 27.0454 23.9567L31.8343 19.8544C31.8524 19.839 31.8565 19.8275 31.8583 19.8205C31.8609 19.8105 31.8613 19.7955 31.8557 19.7784C31.8502 19.7612 31.841 19.7493 31.833 19.7427C31.8275 19.7381 31.8174 19.7313 31.7937 19.7294L25.5081 19.2255C25.0557 19.1892 24.6616 18.9029 24.4874 18.4839L22.0657 12.6616C22.0566 12.6396 22.047 12.6322 22.0409 12.6283C22.0322 12.6228 22.018 12.6178 22 12.6178C21.982 12.6178 21.9678 12.6228 21.9591 12.6283Z" fill="var(--fill-0, #00A19B)" stroke="var(--stroke-0, #00A19B)" stroke-width="0.659871" stroke-linecap="round" stroke-linejoin="round"/>
</g>
</svg>
