<svg width="36" height="36" viewBox="0 0 36 36" fill="none" xmlns="http://www.w3.org/2000/svg">
<path d="M18 0C27.9411 0 36 8.05888 36 18C36 27.9411 27.9411 36 18 36C8.05887 36 0 27.9411 0 18C0 8.05888 8.05887 0 18 0Z" fill="#EDA783"/>
<path d="M15.395 9.4399C15.395 10.6024 16.3374 11.5448 17.5 11.5448C18.6625 11.5448 19.6049 10.6024 19.6049 9.4399C19.6049 8.27737 18.6625 7.33496 17.5 7.33496C16.3374 7.33496 15.395 8.27737 15.395 9.4399Z" fill="#262626"/>
<path d="M15.395 26.56C15.395 27.7225 16.3374 28.665 17.5 28.665C18.6625 28.665 19.6049 27.7225 19.6049 26.56C19.6049 25.3975 18.6625 24.4551 17.5 24.4551C16.3374 24.4551 15.395 25.3975 15.395 26.56Z" fill="#262626"/>
<path d="M15.395 18.1403C15.395 19.3028 16.3374 20.2452 17.5 20.2452C18.6625 20.2452 19.6049 19.3028 19.6049 18.1403C19.6049 16.9778 18.6625 16.0354 17.5 16.0354C16.3374 16.0354 15.395 16.9778 15.395 18.1403Z" fill="#262626"/>
</svg>
