<svg width="44" height="44" viewBox="0 0 44 44" fill="none" xmlns="http://www.w3.org/2000/svg">
<path d="M22.0002 39.4166C12.3958 39.4166 4.5835 31.6043 4.5835 21.9999C4.5835 12.3955 12.3958 4.58325 22.0002 4.58325C31.6045 4.58325 39.4168 12.3955 39.4168 21.9999C39.4168 31.6043 31.6045 39.4166 22.0002 39.4166ZM22.0002 6.41659C13.4064 6.41659 6.41683 13.4062 6.41683 21.9999C6.41683 30.5937 13.4064 37.5833 22.0002 37.5833C30.5939 37.5833 37.5835 30.5937 37.5835 21.9999C37.5835 13.4062 30.5939 6.41659 22.0002 6.41659Z" fill="#00A19B"/>
<path d="M22.0162 22.9876C18.7872 22.9876 16.1587 20.3591 16.1587 17.1301C16.1587 13.9012 18.7872 11.2726 22.0162 11.2726C25.2452 11.2726 27.8737 13.9012 27.8737 17.1301C27.8737 20.3591 25.2452 22.9876 22.0162 22.9876ZM22.0162 13.106C19.7979 13.106 17.992 14.9118 17.992 17.1301C17.992 19.3485 19.7979 21.1543 22.0162 21.1543C24.2345 21.1543 26.0404 19.3485 26.0404 17.1301C26.0404 14.9118 24.2345 13.106 22.0162 13.106Z" fill="#00A19B"/>
<path d="M31.4762 31.1368C31.1645 31.1368 30.8597 30.9764 30.6879 30.6876C30.5985 30.541 28.3504 26.9958 21.9612 26.9958C15.572 26.9958 13.6379 30.4997 13.5554 30.6487C13.3147 31.091 12.7625 31.2605 12.3179 31.0245C11.8733 30.7885 11.7014 30.2407 11.9352 29.7939C12.0337 29.6037 14.4422 25.1624 21.9612 25.1624C29.4802 25.1624 32.1522 29.5624 32.2645 29.7503C32.5235 30.1858 32.3814 30.7472 31.946 31.0062C31.7993 31.0933 31.6366 31.1345 31.4785 31.1345L31.4762 31.1368Z" fill="#00A19B"/>
</svg>
