<svg width="44" height="44" viewBox="0 0 44 44" fill="none" xmlns="http://www.w3.org/2000/svg">
<path d="M41.2502 17.5085C41.7566 17.5085 42.1668 17.0983 42.1668 16.5918V10.0858C42.1668 8.5687 40.9316 7.3335 39.4145 7.3335H4.58579C3.0687 7.3335 1.8335 8.5687 1.8335 10.0858V16.5941C1.8335 17.0937 2.23454 17.5016 2.73412 17.5108C4.68433 17.5452 6.27245 19.5504 6.27245 21.9795C6.27245 24.4087 4.68433 26.4139 2.73412 26.4483C2.23454 26.4575 1.8335 26.8654 1.8335 27.365V33.9145C1.8335 35.4316 3.0687 36.6668 4.58579 36.6668H39.4145C40.9316 36.6668 42.1668 35.4316 42.1668 33.9145V27.3672C42.1668 26.8608 41.7566 26.4506 41.2502 26.4506C39.2702 26.4506 37.6614 24.4454 37.6614 21.9795C37.6614 19.5137 39.2725 17.5085 41.2502 17.5085ZM3.66683 33.9145V28.1762C6.18308 27.6331 8.10579 25.0458 8.10579 21.9795C8.10579 18.9133 6.18308 16.326 3.66683 15.7829V10.0858C3.66683 9.57933 4.07933 9.16683 4.58579 9.16683H13.0077V34.8335H4.58579C4.07933 34.8335 3.66683 34.421 3.66683 33.9145ZM35.8281 21.9795C35.8281 25.0939 37.7783 27.6858 40.3335 28.1945V33.9145C40.3335 34.421 39.921 34.8335 39.4145 34.8335H14.841V9.16683H39.4145C39.921 9.16683 40.3335 9.57933 40.3335 10.0858V15.7645C37.7783 16.2733 35.8281 18.8652 35.8281 21.9795Z" fill="#00A19B"/>
<path d="M21.7595 21.5235C23.5837 21.5235 25.0664 20.0408 25.0664 18.2166C25.0664 16.3925 23.5837 14.9097 21.7595 14.9097C19.9354 14.9097 18.4527 16.3925 18.4527 18.2166C18.4527 20.0408 19.9354 21.5235 21.7595 21.5235ZM21.7595 16.7431C22.5708 16.7431 23.2331 17.4031 23.2331 18.2166C23.2331 19.0302 22.5731 19.6902 21.7595 19.6902C20.946 19.6902 20.286 19.0302 20.286 18.2166C20.286 17.4031 20.946 16.7431 21.7595 16.7431Z" fill="#00A19B"/>
<path d="M30.2685 23.4256C28.4443 23.4256 26.9616 24.9083 26.9616 26.7325C26.9616 28.5566 28.4443 30.0393 30.2685 30.0393C32.0927 30.0393 33.5754 28.5566 33.5754 26.7325C33.5754 24.9083 32.0927 23.4256 30.2685 23.4256ZM30.2685 28.206C29.4572 28.206 28.795 27.546 28.795 26.7325C28.795 25.9189 29.455 25.2589 30.2685 25.2589C31.082 25.2589 31.742 25.9189 31.742 26.7325C31.742 27.546 31.082 28.206 30.2685 28.206Z" fill="#00A19B"/>
<path d="M33.0781 15.7714C32.7275 15.407 32.1477 15.3956 31.781 15.7462L19.2433 27.821C18.8789 28.1716 18.8675 28.7514 19.2181 29.1181C19.3991 29.306 19.6375 29.4 19.8781 29.4C20.1187 29.4 20.3364 29.3152 20.5129 29.1433L33.0506 17.0685C33.415 16.7179 33.4264 16.1381 33.0758 15.7714H33.0781Z" fill="#00A19B"/>
</svg>
