<svg width="32" height="32" viewBox="0 0 32 32" fill="none" xmlns="http://www.w3.org/2000/svg">
<path d="M19.3833 16.2502C19.3855 15.9926 19.2943 15.7431 19.1265 15.5477L13.4254 9.08655C13.3498 8.99546 13.2551 8.92219 13.1479 8.87188C13.0407 8.82157 12.9238 8.79544 12.8054 8.79544C12.6871 8.79544 12.5701 8.82157 12.463 8.87188C12.3558 8.92219 12.2611 8.99546 12.1854 9.08655C12.0197 9.28326 11.9288 9.53217 11.9288 9.7894C11.9288 10.0466 12.0197 10.2956 12.1854 10.4924L17.2662 16.2502L12.1854 22.0087C12.0197 22.2054 11.9288 22.4544 11.9288 22.7116C11.9288 22.9689 12.0197 23.2179 12.1854 23.4146C12.2611 23.5056 12.3559 23.5787 12.4631 23.629C12.5702 23.6792 12.6871 23.7052 12.8054 23.7052C12.9238 23.7052 13.0407 23.6792 13.1478 23.629C13.255 23.5787 13.3498 23.5056 13.4254 23.4146L19.1265 16.9535C19.2944 16.7579 19.3856 16.5079 19.3833 16.2502Z" fill="#1C1C1C"/>
</svg>
