<svg width="24" height="24" viewBox="0 0 24 24" fill="none" xmlns="http://www.w3.org/2000/svg">
<path d="M11.9324 21.4899C6.68119 21.4899 2.40869 17.2174 2.40869 11.9661C2.40869 6.71488 6.68119 2.44238 11.9324 2.44238C17.1837 2.44238 21.4562 6.71488 21.4562 11.9661C21.4562 17.2174 17.1837 21.4899 11.9324 21.4899ZM11.9324 3.44238C7.23244 3.44238 3.40869 7.26613 3.40869 11.9661C3.40869 16.6661 7.23244 20.4899 11.9324 20.4899C16.6324 20.4899 20.4562 16.6661 20.4562 11.9661C20.4562 7.26613 16.6324 3.44238 11.9324 3.44238Z" fill="#007A7A"/>
<path d="M10.7474 15.4399C10.6062 15.4399 10.4712 15.3799 10.3762 15.2749L7.77369 12.3836C7.58869 12.1786 7.60494 11.8624 7.81119 11.6774C8.01619 11.4924 8.33244 11.5086 8.51744 11.7149L10.7412 14.1861L15.4774 8.73363C15.6587 8.52488 15.9749 8.50238 16.1824 8.68363C16.3912 8.86488 16.4137 9.17988 16.2324 9.38863L11.1249 15.2686C11.0312 15.3774 10.8949 15.4399 10.7524 15.4411H10.7474V15.4399Z" fill="#007A7A"/>
</svg>
