<svg width="20" height="20" viewBox="0 0 20 20" fill="none" xmlns="http://www.w3.org/2000/svg">
<path d="M10 0C15.5228 0 20 4.47715 20 10C20 15.5228 15.5228 20 10 20C4.47715 20 0 15.5228 0 10C0 4.47715 4.47715 0 10 0Z" fill="#E1EFEF"/>
<path d="M9.6925 7.88583C9.85197 7.88459 10.0065 7.94114 10.1275 8.045L14.1275 11.5733C14.1837 11.6202 14.2289 11.679 14.2599 11.7453C14.2909 11.8116 14.307 11.8839 14.307 11.9571C14.307 12.0303 14.2909 12.1026 14.2599 12.1689C14.2289 12.2352 14.1837 12.2939 14.1275 12.3408C14.0058 12.4434 13.8517 12.4997 13.6925 12.4997C13.5333 12.4997 13.3792 12.4434 13.2575 12.3408L9.69413 9.19666L6.1308 12.3408C6.00914 12.4436 5.85506 12.4999 5.69582 12.4999C5.53658 12.4999 5.3825 12.4436 5.26084 12.3408C5.20466 12.2939 5.15941 12.2352 5.1284 12.1689C5.09738 12.1026 5.0814 12.0303 5.0814 11.9571C5.0814 11.8839 5.09738 11.8116 5.1284 11.7453C5.15941 11.679 5.20466 11.6202 5.26084 11.5733L9.26088 8.045C9.38099 7.94182 9.53417 7.88532 9.6925 7.88583Z" fill="#007A7A"/>
</svg>
