<svg width="145" height="30" viewBox="0 0 145 30" fill="none" xmlns="http://www.w3.org/2000/svg">
<g clip-path="url(#clip0_40000956_7817)">
<path d="M31.0486 9.6959C32.0286 12.2082 32.2723 14.9478 31.7512 17.5936C31.23 20.2395 29.9656 22.682 28.106 24.635C26.2465 26.5879 23.8688 27.9704 21.2516 28.6205C18.6345 29.2706 15.8862 29.1613 13.329 28.3055C10.7186 27.4184 8.42317 25.7902 6.7231 23.6198C5.02303 21.4494 3.99199 18.8308 3.75588 16.0839C3.51977 13.3371 4.08885 10.581 5.3936 8.15237C6.69835 5.7237 8.68228 3.72764 11.103 2.40811C15.4966 -0.140487 22.0867 0.275356 26.0994 3.35661C28.318 4.95643 30.0348 7.15539 31.0486 9.6959Z" fill="white"/>
<path d="M29.9871 16.5582H30.4377C30.3519 16.2689 29.9317 16.3844 29.7615 16.1247C29.9568 16.0918 30.1572 16.1329 30.3237 16.2401V16.2119C30.2394 16.1535 30.0426 16.1535 30.1018 15.9797C28.8317 15.5084 27.6385 14.8515 26.5611 14.0303C25.6615 13.5124 25.1836 12.2659 24.1694 11.9196C24.0314 11.6871 23.9095 11.4454 23.8047 11.1961L23.6922 11.2531C23.5478 11.0137 23.4258 10.7617 23.3275 10.5C23.251 10.4123 23.1554 10.3433 23.048 10.2983C22.9407 10.2533 22.8245 10.2334 22.7083 10.2403C22.3991 10.4141 21.9226 10.125 21.7244 10.2988L21.8923 10.3853C21.8368 10.4726 21.7813 10.5591 21.64 10.5295C21.0253 10.0123 20.4785 9.41958 20.0125 8.76522C20.2647 8.04244 19.3363 7.87005 18.9997 7.34776C18.5203 6.97268 17.9018 7.34772 17.4239 7.49568C16.6247 7.26616 15.806 7.11114 14.9781 7.03258C14.6401 7.11914 14.4433 7.49567 14.2753 7.72723C13.7693 8.45001 13.5437 9.34741 12.9548 10.0687C12.7854 10.3883 12.363 10.2425 12.141 10.4748C11.6497 10.4863 11.1716 10.6366 10.7621 10.9084C10.7347 10.9653 10.7066 11.0526 10.6222 11.0238C10.4915 11.258 10.3413 11.4807 10.1732 11.6896C9.74928 12.2674 8.96361 12.4412 8.37178 12.7874C7.61244 13.1773 6.91977 13.6852 6.31959 14.2922L6.34845 14.321C6.03921 14.7841 5.58939 15.0439 5.28016 15.4774C5.58939 15.3916 5.53393 15.015 5.8979 15.0727C5.98372 15.305 5.70113 15.3923 5.67598 15.5358C5.7899 15.4774 5.92972 15.3915 6.04587 15.4204C5.99039 15.5928 5.84906 15.68 5.70776 15.7954C5.84906 15.7385 5.8202 15.8827 5.87569 15.9123C6.01699 15.9412 6.24562 15.68 6.43871 15.7954C6.28793 15.9586 6.12839 16.1135 5.9608 16.2594V16.2882C6.07325 16.2882 6.15755 16.2881 6.21303 16.2008C6.40982 16.172 6.57777 15.8827 6.74792 15.8546L6.43794 16.2882L6.77605 16.0285C6.86039 16.1439 6.57777 16.2312 6.71907 16.3459C6.97134 16.2305 7.02832 15.9693 7.25396 15.8539C7.2251 16.0847 6.97132 16.2586 6.86035 16.4613C6.97206 16.3451 7.31092 16.2585 7.25396 16.0277C7.50619 15.8244 7.73274 15.5911 7.92864 15.3331C8.54785 14.6391 8.99691 13.9171 9.9261 13.713C9.95273 13.7433 9.87061 13.7714 9.9261 13.7433C10.4321 13.3083 11.2192 13.3082 11.7016 12.7874C11.7844 12.672 11.9235 12.4405 12.1225 12.4974V12.4404C12.1371 12.3803 12.1748 12.3284 12.2274 12.2959C12.2801 12.2633 12.3434 12.2528 12.4037 12.2666L12.4325 12.382C12.8261 11.9204 13.5008 12.0928 13.81 11.6593V11.7177C14.2345 11.5204 14.5881 11.1973 14.8228 10.7923C15.1667 10.3274 15.4858 9.84456 15.7786 9.34589C16.0585 9.29696 16.3454 9.30683 16.6212 9.37479C16.9593 9.83642 17.5497 9.57747 18.0572 9.60706C18.0845 9.86673 18.3368 9.60702 18.3649 9.86669C18.7859 10.0679 18.9264 10.705 19.2919 11.0504C19.1567 11.1232 19.0375 11.2221 18.9411 11.3415C18.8446 11.4609 18.773 11.5984 18.7304 11.7458C18.365 11.8013 18.703 12.2081 18.3368 12.2363C18.3635 12.2023 18.3977 12.1748 18.4366 12.1559C18.4754 12.137 18.5181 12.1272 18.5614 12.1272C18.6046 12.1272 18.6473 12.137 18.6862 12.1559C18.7251 12.1748 18.7592 12.2023 18.7859 12.2363L18.703 12.3229C18.2682 12.5515 17.8455 12.8023 17.4365 13.0745L17.4935 13.1329C17.381 13.2202 17.2715 13.3637 17.1842 13.4222H17.2686C17.2774 13.4222 17.2745 13.434 17.2819 13.4377C17.2375 13.4636 17.196 13.4932 17.2175 13.5575H17.3018C17.3085 13.5476 17.3167 13.5389 17.3263 13.5317V13.5361C17.4676 13.5361 17.6089 13.3334 17.7198 13.4503C17.7494 13.4791 17.6925 13.5073 17.6925 13.5361C17.8323 13.3334 18.0017 13.5665 18.086 13.5665C17.8892 13.7403 17.6355 13.9415 17.4113 14.1154H17.6333C17.5489 14.3765 17.2412 14.2892 17.0999 14.52C17.2678 14.52 17.1554 14.7228 17.0999 14.7509C17.2123 14.722 17.3218 14.5785 17.4646 14.6651C17.3803 14.8663 17.128 14.8959 17.0999 15.1274C17.2967 15.012 17.4091 14.6651 17.6621 14.7805C17.6902 14.8663 17.4942 14.8959 17.5778 15.0401C17.6902 15.0113 17.7746 14.8663 17.9144 14.9247C17.9286 14.924 17.9428 14.9269 17.9556 14.9329C17.9685 14.939 17.9796 14.9482 17.9881 14.9596C17.9966 14.971 18.0021 14.9842 18.0043 14.9983C18.0064 15.0124 18.005 15.0267 18.0002 15.0401C18.1127 14.8959 18.3368 15.0401 18.4508 14.9247C18.8429 14.3758 19.6026 14.4616 20.1648 14.202L20.136 14.0577C20.2218 13.71 20.7279 13.7965 21.0075 13.6811C21.0933 13.3334 21.5424 13.5945 21.6837 13.2764C21.8516 13.1322 21.9929 13.3334 22.1601 13.3334C22.3872 13.2195 22.6965 13.2469 22.8933 13.1322C23.4266 13.0153 23.8757 13.6811 24.1849 13.9992C24.9137 14.8187 25.804 15.4787 26.8001 15.9375C26.3222 15.5898 25.8177 15.3582 25.3383 14.9831C25.3671 14.8958 25.4507 14.9247 25.5069 14.9247C25.9286 15.2428 26.3496 15.4737 26.7735 15.7637C27.6588 16.4082 28.6342 16.9189 29.6683 17.2795L29.527 17.164C29.5558 17.1352 29.5004 17.0767 29.5558 17.0486L29.7541 17.164C29.7815 17.0486 29.922 17.0487 30.0064 17.0161C29.8651 16.7565 29.5004 16.6699 29.2474 16.5241C28.4364 16.183 27.6714 15.7416 26.9703 15.2103L26.9976 15.1836C27.8254 15.6793 28.6912 16.1085 29.5869 16.4671C29.7267 16.7564 29.9568 16.5826 30.1787 16.6699C30.0981 16.6455 29.9871 16.6455 29.9871 16.5582Z" fill="#00A19B"/>
<path d="M17.8529 12.5559L17.7101 12.4959C17.7944 12.7327 17.5103 12.6728 17.4252 12.7631L17.3964 12.6735L17.17 12.8518C17.1411 13.0871 16.8001 12.9406 16.772 13.1773C16.9718 13.1773 17.1419 12.9103 17.3964 12.9406C17.4252 12.7623 17.7101 12.6728 17.8529 12.5559Z" fill="#00A19B"/>
<path d="M16.943 12.7326C16.8002 12.8214 16.6863 12.8214 16.6293 12.9694C16.6963 12.9567 16.7594 12.9286 16.8138 12.8876C16.8682 12.8465 16.9124 12.7935 16.943 12.7326Z" fill="#00A19B"/>
<path d="M79.6074 20.292H83.6763V8.45152H86.5955V24.2217H83.6763V23.1534L72.4817 23.1246L72.4551 24.1352H69.4522V8.31091H72.4551V20.292L76.5779 20.2638V5.72975H79.6111L79.6074 20.292Z" fill="white"/>
<path d="M52.4707 21.0243V15.8H58.6968V12.9451L52.4685 12.9162V8.79703H59.1407L59.1451 5.84453H42.7868V8.79703H49.3835V12.9162H43.2085V15.8014H49.3835V21.0259H41.862V23.9237H59.9589V21.0259L52.4707 21.0243Z" fill="white"/>
<path d="M55.2501 16.7069C54.9714 16.7939 54.7184 16.9481 54.5135 17.1559C54.3085 17.3637 54.1578 17.6189 54.0747 17.8987C53.9916 18.1785 53.9786 18.4745 54.0369 18.7605C54.0952 19.0465 54.2229 19.3139 54.4089 19.5388C54.6183 19.7912 54.8928 19.9813 55.2026 20.0886C55.5124 20.196 55.8456 20.2165 56.1663 20.1479C56.4869 20.0793 56.7826 19.9243 57.0213 19.6995C57.2601 19.4748 57.4327 19.1889 57.5205 18.873C57.6376 18.3838 57.5579 17.8681 57.2985 17.437C57.0831 17.1089 56.7665 16.8601 56.3968 16.7283C56.0271 16.5965 55.6244 16.589 55.2501 16.7069Z" fill="white"/>
<path d="M102.094 16.7219L101.467 19.5959L103.301 19.9956L103.928 17.1216L102.094 16.7219Z" fill="white"/>
<path d="M111.766 19.5662C113.926 17.9993 114.337 17.7056 114.337 17.7056C114.337 17.7056 112.654 15.987 112.602 15.9671C112.549 15.9471 111.13 16.9229 110.54 17.3261C110.351 16.6948 110.234 16.044 110.192 15.3863H113.313V5.99977H104.439V21.0865C104.135 21.1405 103.847 21.1944 103.587 21.2433L103.53 20.0596L101.114 20.4835V16.1365H103.766V13.7803H101.114V12.8644H103.041V11.7095C103.154 11.7939 103.22 11.839 103.22 11.839L104.439 9.07509C103.033 8.3647 101.925 7.17953 101.31 5.72975H98.8172C98.1814 7.36506 97.0071 8.7348 95.4881 9.61296L96.7073 12.3783C96.7073 12.3783 96.913 12.2 97.2252 11.9107V12.8644H98.7809V13.7803H95.8957V16.1365H98.7809V20.8911L95.8358 21.4045L95.8987 24.0072L103.328 22.5912L103.31 23.9672L109.282 22.9249L109.16 20.5516C110.056 22.0547 111.372 23.2631 112.946 24.0286L114.211 21.5444C113.314 20.9935 112.492 20.3285 111.766 19.5662ZM98.6329 10.5081C99.1712 9.95258 99.6508 9.34324 100.064 8.68966C100.494 9.36332 101.014 9.97512 101.61 10.5081H98.6329ZM107.042 8.57876H110.712V9.82085H107.042V8.57876ZM107.042 20.6307V15.3856H107.806C107.78 17.0994 108.196 18.791 109.015 20.2971C108.717 20.3467 107.954 20.4746 107.04 20.63L107.042 20.6307ZM107.042 13.2269V11.9825H110.712V13.2276L107.042 13.2269Z" fill="white"/>
<path d="M98.1973 20.0693L97.7594 16.9289L95.8144 17.2839L96.2583 20.4459L98.1973 20.0693Z" fill="white"/>
<path d="M139.933 5.82593H129.607V8.58907H139.933V5.82593Z" fill="white"/>
<path d="M140.696 11.7828H128.689L126.666 10.3409C126.666 10.3409 124.46 14.0332 122.202 15.5861L123.466 18.6193C123.466 18.6193 124.052 18.1162 124.859 17.3076V23.8659H127.677V14.02C128.031 13.5271 128.355 13.0132 128.646 12.4812V14.5119H135.065V20.7196C135.065 20.7717 135.055 20.8232 135.035 20.8714C135.015 20.9195 134.986 20.9633 134.949 21.0002C134.912 21.037 134.868 21.0662 134.82 21.0861C134.772 21.106 134.721 21.1162 134.668 21.1161H131.404L132.499 23.8696H135.874C136.423 23.8696 136.95 23.6514 137.338 23.2629C137.727 22.8744 137.945 22.3476 137.945 21.7982V14.5111H140.697L140.696 11.7828Z" fill="white"/>
<path d="M128.685 7.19606C127.871 6.66415 127.086 6.07821 126.301 5.54777C125.188 7.00073 123.853 8.26881 122.345 9.30518L123.662 12.0261C125.587 10.6989 127.284 9.06762 128.685 7.19606Z" fill="white"/>
</g>
<defs>
<clipPath id="clip0_40000956_7817">
<rect width="145" height="29.5918" fill="white"/>
</clipPath>
</defs>
</svg>
