<svg preserveAspectRatio="none" width="100%" height="100%" overflow="visible" style="display: block;" viewBox="0 0 145 29.5918" fill="none" xmlns="http://www.w3.org/2000/svg">
<g id="top-bar__logo" clip-path="url(#clip0_40001042_18700)">
<g id="top-bar__logo-icon">
<path d="M31.0486 9.69587C32.0287 12.2082 32.2724 14.9477 31.7512 17.5936C31.2301 20.2394 29.9656 22.682 28.1061 24.6349C26.2465 26.5879 23.8688 27.9704 21.2517 28.6205C18.6345 29.2705 15.8863 29.1613 13.329 28.3055C10.7187 27.4184 8.4232 25.7902 6.72313 23.6198C5.02306 21.4494 3.99202 18.8308 3.75591 16.0839C3.51981 13.3371 4.08888 10.581 5.39363 8.15234C6.69838 5.72367 8.68231 3.72761 11.103 2.40809C15.4966 -0.140511 22.0867 0.275331 26.0994 3.35658C28.3181 4.9564 30.0348 7.15536 31.0486 9.69587Z" fill="var(--fill-0, #00A19B)"/>
<path d="M29.9872 16.5582H30.4377C30.3519 16.2689 29.9317 16.3843 29.7615 16.1247C29.9568 16.0917 30.1573 16.1329 30.3238 16.2401V16.2119C30.2394 16.1535 30.0426 16.1535 30.1018 15.9796C28.8318 15.5084 27.6386 14.8515 26.5612 14.0303C25.6616 13.5124 25.1837 12.2658 24.1694 11.9196C24.0314 11.6871 23.9096 11.4453 23.8047 11.1961L23.6922 11.2531C23.5479 11.0137 23.4258 10.7617 23.3275 10.5C23.251 10.4123 23.1554 10.3433 23.0481 10.2982C22.9407 10.2532 22.8245 10.2334 22.7083 10.2403C22.3991 10.4141 21.9227 10.1249 21.7244 10.2988L21.8923 10.3853C21.8368 10.4726 21.7813 10.5591 21.64 10.5295C21.0254 10.0123 20.4785 9.41955 20.0125 8.76519C20.2648 8.04241 19.3363 7.87003 18.9997 7.34773C18.5203 6.97266 17.9019 7.3477 17.424 7.49566C16.6248 7.26613 15.806 7.11112 14.9782 7.03256C14.6401 7.11912 14.4433 7.49565 14.2754 7.7272C13.7693 8.44998 13.5437 9.34739 12.9548 10.0687C12.7854 10.3883 12.363 10.2425 12.141 10.4748C11.6497 10.4863 11.1716 10.6366 10.7621 10.9084C10.7347 10.9653 10.7066 11.0526 10.6223 11.0238C10.4916 11.2579 10.3414 11.4807 10.1732 11.6896C9.74931 12.2674 8.96365 12.4412 8.37181 12.7874C7.61247 13.1773 6.9198 13.6852 6.31962 14.2922L6.34848 14.321C6.03924 14.7841 5.58942 15.0438 5.28019 15.4774C5.58942 15.3915 5.53396 15.015 5.89794 15.0727C5.98375 15.305 5.70116 15.3923 5.67601 15.5358C5.78993 15.4773 5.92976 15.3915 6.0459 15.4204C5.99042 15.5927 5.84909 15.68 5.70779 15.7954C5.84909 15.7385 5.82024 15.8827 5.87572 15.9123C6.01702 15.9411 6.24565 15.68 6.43874 15.7954C6.28796 15.9586 6.12842 16.1135 5.96083 16.2593V16.2881C6.07328 16.2881 6.15758 16.2881 6.21306 16.2008C6.40985 16.172 6.5778 15.8827 6.74795 15.8546L6.43797 16.2881L6.77608 16.0285C6.86042 16.1439 6.5778 16.2312 6.7191 16.3458C6.97137 16.2304 7.02835 15.9693 7.25399 15.8539C7.22513 16.0847 6.97135 16.2586 6.86038 16.4613C6.97209 16.3451 7.31095 16.2585 7.25399 16.0277C7.50622 15.8244 7.73277 15.5911 7.92867 15.333C8.54788 14.6391 8.99695 13.9171 9.92613 13.7129C9.95276 13.7433 9.87064 13.7714 9.92613 13.7433C10.4321 13.3083 11.2193 13.3082 11.7016 12.7874C11.7845 12.672 11.9236 12.4404 12.1226 12.4974V12.4404C12.1372 12.3803 12.1749 12.3284 12.2275 12.2958C12.2801 12.2633 12.3434 12.2528 12.4037 12.2666L12.4326 12.382C12.8261 11.9204 13.5008 12.0928 13.8101 11.6593V11.7177C14.2346 11.5204 14.5881 11.1973 14.8228 10.7922C15.1668 10.3274 15.4859 9.84454 15.7787 9.34587C16.0585 9.29693 16.3454 9.3068 16.6213 9.37477C16.9594 9.8364 17.5497 9.57744 18.0572 9.60704C18.0846 9.8667 18.3369 9.607 18.365 9.86667C18.7859 10.0679 18.9265 10.7049 19.2919 11.0504C19.1568 11.1231 19.0375 11.2221 18.9411 11.3415C18.8447 11.4609 18.7731 11.5983 18.7304 11.7458C18.365 11.8013 18.703 12.2081 18.3368 12.2362C18.3636 12.2022 18.3977 12.1748 18.4366 12.1559C18.4755 12.137 18.5181 12.1271 18.5614 12.1271C18.6046 12.1271 18.6473 12.137 18.6862 12.1559C18.7251 12.1748 18.7592 12.2022 18.7859 12.2362L18.7031 12.3228C18.2683 12.5514 17.8455 12.8023 17.4365 13.0745L17.4935 13.1329C17.3811 13.2202 17.2715 13.3637 17.1842 13.4222H17.2686C17.2775 13.4222 17.2745 13.434 17.2819 13.4377C17.2375 13.4636 17.1961 13.4932 17.2175 13.5575H17.3019C17.3085 13.5476 17.3168 13.5389 17.3263 13.5317V13.5361C17.4676 13.5361 17.6089 13.3333 17.7199 13.4502C17.7495 13.4791 17.6925 13.5073 17.6925 13.5361C17.8323 13.3334 18.0017 13.5665 18.0861 13.5665C17.8893 13.7403 17.6355 13.9415 17.4114 14.1153H17.6333C17.549 14.3765 17.2412 14.2892 17.0999 14.52C17.2678 14.52 17.1554 14.7227 17.0999 14.7508C17.2123 14.722 17.3219 14.5785 17.4647 14.665C17.3803 14.8663 17.128 14.8959 17.0999 15.1274C17.2967 15.012 17.4091 14.6651 17.6622 14.7805C17.6903 14.8663 17.4942 14.8958 17.5778 15.0401C17.6903 15.0112 17.7746 14.8662 17.9144 14.9247C17.9286 14.924 17.9428 14.9268 17.9557 14.9329C17.9685 14.939 17.9797 14.9481 17.9882 14.9595C17.9966 14.9709 18.0022 14.9842 18.0043 14.9983C18.0064 15.0123 18.005 15.0267 18.0003 15.0401C18.1127 14.8958 18.3369 15.0401 18.4508 14.9247C18.8429 14.3758 19.6026 14.4616 20.1649 14.202L20.136 14.0576C20.2218 13.7099 20.7279 13.7965 21.0075 13.6811C21.0934 13.3334 21.5424 13.5945 21.6837 13.2764C21.8516 13.1321 21.9929 13.3334 22.1601 13.3334C22.3872 13.2195 22.6965 13.2468 22.8933 13.1322C23.4267 13.0153 23.8757 13.6811 24.1849 13.9992C24.9137 14.8187 25.8041 15.4786 26.8001 15.9375C26.3222 15.5898 25.8177 15.3582 25.3383 14.9831C25.3672 14.8958 25.4507 14.9247 25.507 14.9247C25.9286 15.2428 26.3496 15.4736 26.7735 15.7636C27.6589 16.4082 28.6342 16.9189 29.6683 17.2794L29.527 17.164C29.5559 17.1352 29.5004 17.0767 29.5559 17.0486L29.7541 17.164C29.7815 17.0486 29.9221 17.0487 30.0064 17.0161C29.8651 16.7564 29.5004 16.6698 29.2474 16.5241C28.4365 16.183 27.6715 15.7416 26.9703 15.2102L26.9977 15.1836C27.8254 15.6792 28.6912 16.1084 29.5869 16.4671C29.7268 16.7564 29.9568 16.5826 30.1788 16.6699C30.0981 16.6455 29.9872 16.6455 29.9872 16.5582Z" fill="white"/>
<path d="M17.8529 12.5559L17.7101 12.4959C17.7944 12.7326 17.5104 12.6728 17.4253 12.763L17.3964 12.6734L17.17 12.8518C17.1412 13.0871 16.8002 12.9405 16.772 13.1773C16.9718 13.1773 17.1419 12.9102 17.3964 12.9406C17.4253 12.7623 17.7101 12.6728 17.8529 12.5559Z" fill="white"/>
<path d="M16.943 12.7326C16.8002 12.8214 16.6863 12.8214 16.6293 12.9694C16.6963 12.9566 16.7594 12.9286 16.8138 12.8875C16.8682 12.8465 16.9124 12.7935 16.943 12.7326Z" fill="white"/>
<path d="M79.6074 20.2919H83.6763V8.4515H86.5956V24.2216H83.6763V23.1534L72.4817 23.1246L72.4551 24.1351H69.4522V8.31089H72.4551V20.2919L76.578 20.2638V5.72973H79.6111L79.6074 20.2919Z" fill="var(--fill-0, #00A19B)"/>
<path d="M52.4707 21.0243V15.8H58.6968V12.9451L52.4685 12.9162V8.79701H59.1407L59.1452 5.8445H42.7868V8.79701H49.3836V12.9162H43.2085V15.8014H49.3836V21.0259H41.8621V23.9236H59.9589V21.0259L52.4707 21.0243Z" fill="var(--fill-0, #00A19B)"/>
<path d="M55.2501 16.7069C54.9714 16.7939 54.7185 16.948 54.5135 17.1559C54.3085 17.3637 54.1579 17.6188 54.0747 17.8987C53.9916 18.1785 53.9786 18.4744 54.0369 18.7605C54.0952 19.0465 54.2229 19.3138 54.4089 19.5388C54.6183 19.7911 54.8928 19.9812 55.2026 20.0886C55.5124 20.196 55.8457 20.2165 56.1663 20.1479C56.4869 20.0792 56.7826 19.9242 57.0214 19.6995C57.2601 19.4747 57.4327 19.1889 57.5205 18.873C57.6377 18.3838 57.558 17.868 57.2986 17.437C57.0831 17.1089 56.7665 16.8601 56.3968 16.7283C56.0271 16.5965 55.6245 16.589 55.2501 16.7069Z" fill="var(--fill-0, #00A19B)"/>
<path d="M102.094 16.7219L101.467 19.5958L103.301 19.9956L103.928 17.1216L102.094 16.7219Z" fill="var(--fill-0, #00A19B)"/>
<path d="M111.766 19.5661C113.926 17.9992 114.337 17.7055 114.337 17.7055C114.337 17.7055 112.654 15.987 112.602 15.967C112.549 15.9471 111.13 16.9229 110.54 17.3261C110.351 16.6947 110.234 16.0439 110.192 15.3863H113.313V5.99975H104.439V21.0865C104.135 21.1405 103.847 21.1944 103.587 21.2432L103.53 20.0596L101.114 20.4835V16.1365H103.766V13.7802H101.114V12.8644H103.041V11.7095C103.154 11.7938 103.22 11.839 103.22 11.839L104.439 9.07507C103.034 8.36467 101.925 7.17951 101.31 5.72973H98.8172C98.1814 7.36504 97.0071 8.73478 95.4881 9.61294L96.7073 12.3783C96.7073 12.3783 96.913 12.2 97.2252 11.9107V12.8644H98.781V13.7802H95.8958V16.1365H98.781V20.8911L95.8358 21.4045L95.8987 24.0072L103.329 22.5912L103.31 23.9672L109.282 22.9248L109.16 20.5516C110.056 22.0547 111.372 23.2631 112.946 24.0286L114.211 21.5444C113.314 20.9934 112.492 20.3284 111.766 19.5661ZM98.633 10.5081C99.1712 9.95256 99.6509 9.34321 100.064 8.68964C100.494 9.3633 101.014 9.97509 101.61 10.5081H98.633ZM107.042 8.57874H110.712V9.82082H107.042V8.57874ZM107.042 20.6307V15.3855H107.806C107.78 17.0994 108.196 18.791 109.015 20.2971C108.717 20.3466 107.954 20.4746 107.04 20.63L107.042 20.6307ZM107.042 13.2268V11.9825H110.712V13.2276L107.042 13.2268Z" fill="var(--fill-0, #00A19B)"/>
<path d="M98.1974 20.0693L97.7594 16.9288L95.8145 17.2839L96.2584 20.4458L98.1974 20.0693Z" fill="var(--fill-0, #00A19B)"/>
<path d="M139.933 5.82591H129.607V8.58904H139.933V5.82591Z" fill="var(--fill-0, #00A19B)"/>
<path d="M140.696 11.7828H128.689L126.666 10.3409C126.666 10.3409 124.46 14.0332 122.202 15.586L123.466 18.6193C123.466 18.6193 124.052 18.1162 124.859 17.3076V23.8658H127.677V14.0199C128.031 13.527 128.355 13.0132 128.647 12.4812V14.5119H135.065V20.7195C135.065 20.7716 135.055 20.8232 135.035 20.8713C135.015 20.9195 134.986 20.9633 134.949 21.0001C134.912 21.037 134.868 21.0662 134.82 21.0861C134.772 21.106 134.721 21.1162 134.668 21.1161H131.404L132.499 23.8695H135.874C136.423 23.8695 136.95 23.6513 137.338 23.2629C137.727 22.8744 137.945 22.3475 137.945 21.7982V14.5111H140.697L140.696 11.7828Z" fill="var(--fill-0, #00A19B)"/>
<path d="M128.685 7.19603C127.871 6.66412 127.086 6.07818 126.301 5.54775C125.188 7.0007 123.853 8.26879 122.345 9.30516L123.662 12.0261C125.587 10.6989 127.284 9.06759 128.685 7.19603Z" fill="var(--fill-0, #00A19B)"/>
</g>
</g>
<defs>
<clipPath id="clip0_40001042_18700">
<rect width="145" height="29.5918" fill="white"/>
</clipPath>
</defs>
</svg>
