<svg width="20" height="20" viewBox="0 0 20 20" fill="none" xmlns="http://www.w3.org/2000/svg">
<path fill-rule="evenodd" clip-rule="evenodd" d="M8.98413 0.708556C9.35997 -0.236185 10.64 -0.236186 11.0159 0.708556L13.2173 6.24245C13.2267 6.26588 13.2477 6.28189 13.2719 6.28392L18.9861 6.76287C19.9617 6.84464 20.3572 8.11747 19.614 8.78312L15.2603 12.6822C15.2419 12.6987 15.2339 12.7246 15.2395 12.7493L16.5696 18.5792C16.7967 19.5745 15.7611 20.3611 14.9259 19.8278L10.0337 16.7037C10.013 16.6904 9.98698 16.6904 9.96626 16.7037L5.0741 19.8278C4.23892 20.3611 3.20332 19.5745 3.4304 18.5792L4.7605 12.7493C4.76613 12.7246 4.75808 12.6987 4.73965 12.6822L0.386026 8.78312C-0.35722 8.11747 0.038339 6.84464 1.01387 6.76288L6.72808 6.28392C6.75227 6.28189 6.77334 6.26588 6.78266 6.24245L8.98413 0.708556ZM9.96281 1.0927C9.95727 1.09637 9.94855 1.10344 9.94024 1.12433L7.73877 6.65822C7.58033 7.0565 7.22208 7.32863 6.81083 7.3631L1.09662 7.84206C1.07505 7.84387 1.06592 7.85035 1.06088 7.85473C1.05364 7.86102 1.0453 7.87231 1.04024 7.8886C1.03518 7.90488 1.03557 7.91915 1.0379 7.92868C1.03951 7.93532 1.04326 7.94618 1.05969 7.9609L5.41331 11.86C5.72664 12.1406 5.86348 12.5809 5.76775 13.0005L4.43765 18.8304C4.43263 18.8524 4.43571 18.8635 4.43813 18.8699C4.44161 18.879 4.44931 18.8908 4.46256 18.9009C4.47581 18.9109 4.48891 18.9149 4.4983 18.9156C4.50484 18.916 4.51588 18.9156 4.53434 18.9039L9.4265 15.7797C9.77859 15.5549 10.2214 15.5549 10.5735 15.7797L15.4657 18.9039C15.4841 18.9156 15.4952 18.916 15.5017 18.9156C15.5111 18.9149 15.5242 18.9109 15.5374 18.9009C15.5507 18.8908 15.5584 18.879 15.5619 18.8699C15.5643 18.8635 15.5674 18.8524 15.5623 18.8304L14.2322 13.0005C14.1365 12.5809 14.2734 12.1406 14.5867 11.86L18.9403 7.9609C18.9567 7.94618 18.9605 7.93532 18.9621 7.92868C18.9644 7.91915 18.9648 7.90488 18.9598 7.8886C18.9547 7.87231 18.9464 7.86101 18.9391 7.85473C18.9341 7.85035 18.9249 7.84386 18.9034 7.84206L13.1892 7.3631C12.7779 7.32863 12.4197 7.0565 12.2612 6.65822L10.0598 1.12433C10.0514 1.10344 10.0427 1.09637 10.0372 1.0927C10.0292 1.08745 10.0164 1.08265 10 1.08265C9.98362 1.08265 9.97077 1.08745 9.96281 1.0927Z" fill="#1C1C1C"/>
</svg>
