<svg width="36" height="36" viewBox="0 0 36 36" fill="none" xmlns="http://www.w3.org/2000/svg">
<path d="M0 18C0 8.05888 8.05888 0 18 0C27.9411 0 36 8.05888 36 18C36 27.9411 27.9411 36 18 36C8.05888 36 0 27.9411 0 18Z" fill="#00F3EA"/>
<path d="M17.0526 25.5789C17.0526 26.1021 17.4767 26.5263 17.9999 26.5263C18.5232 26.5263 18.9473 26.1021 18.9473 25.5789V10.421C18.9473 9.89778 18.5232 9.47363 17.9999 9.47363C17.4767 9.47363 17.0526 9.89778 17.0526 10.421V25.5789Z" fill="#1C1C1C"/>
<path d="M24.909 18.6698C25.279 19.0398 25.8788 19.0398 26.2488 18.6698C26.6188 18.2999 26.6188 17.7 26.2488 17.3301L18.6698 9.75111C18.2999 9.38114 17.7 9.38114 17.3301 9.75111L9.75111 17.3301C9.38114 17.7 9.38114 18.2999 9.75111 18.6698C10.1211 19.0398 10.7209 19.0398 11.0909 18.6698L17.9999 11.7608L24.909 18.6698Z" fill="#1C1C1C"/>
</svg>
