<svg preserveAspectRatio="none" width="100%" height="100%" overflow="visible" style="display: block;" viewBox="0 0 36 36" fill="none" xmlns="http://www.w3.org/2000/svg">
<g id="btn_send">
<rect width="36" height="36" rx="18" fill="var(--fill-0, #00A19B)"/>
<g id="Vector">
<path d="M17.3598 26.0344C17.3598 26.5576 17.7839 26.9817 18.3072 26.9817C18.8304 26.9817 19.2545 26.5576 19.2545 26.0344V10.8765C19.2545 10.3532 18.8304 9.9291 18.3072 9.9291C17.7839 9.9291 17.3598 10.3532 17.3598 10.8765V26.0344Z" fill="var(--fill-0, white)"/>
<path d="M25.2162 19.1253C25.5862 19.4953 26.186 19.4953 26.556 19.1253C26.926 18.7553 26.926 18.1555 26.556 17.7855L18.977 10.2066C18.6071 9.8366 18.0072 9.8366 17.6373 10.2066L10.0583 17.7855C9.68835 18.1555 9.68835 18.7553 10.0583 19.1253C10.4283 19.4953 11.0281 19.4953 11.3981 19.1253L18.3072 12.2162L25.2162 19.1253Z" fill="var(--fill-0, white)"/>
</g>
</g>
</svg>
