<svg width="44" height="44" viewBox="0 0 44 44" fill="none" xmlns="http://www.w3.org/2000/svg">
<path d="M16.1907 37.6475C15.9432 37.6475 15.6957 37.5696 15.4848 37.4068L8.65797 32.0993C8.15609 31.7098 8.06672 30.9833 8.4563 30.4837L26.9753 6.65955C27.8621 5.5183 29.1409 4.78955 30.5755 4.6108C32.0078 4.43205 33.4286 4.82164 34.5698 5.70851L34.6684 5.78643C37.0242 7.61747 37.4505 11.0252 35.6194 13.381L17.0982 37.2029C16.8713 37.4939 16.5321 37.6475 16.1884 37.6475H16.1907ZM10.3217 31.0681L16.0715 35.5391L34.1734 12.2535C34.7601 11.4996 35.019 10.56 34.8998 9.61122C34.7807 8.66247 34.2994 7.81685 33.5455 7.23018L33.4469 7.15226C32.693 6.5656 31.7534 6.30664 30.8046 6.4258C29.8559 6.54497 29.0103 7.02622 28.4236 7.78018L10.3217 31.0658V31.0681Z" fill="#00A19B"/>
<path d="M26.7991 9.09524L25.6739 10.5427L32.4099 15.779L33.5351 14.3315L26.7991 9.09524Z" fill="#00A19B"/>
<path d="M9.58839 39.3846L16.5528 37.5925L8.20193 31.1002L8.18359 38.2914C8.18359 39.0293 8.87568 39.5679 9.59068 39.3846H9.58839Z" fill="#00A19B"/>
</svg>
