<svg width="24" height="24" viewBox="0 0 24 24" fill="none" xmlns="http://www.w3.org/2000/svg">
<path d="M11.9998 18.4302C12.3739 18.4302 12.6773 18.1269 12.6773 17.7527C12.6773 17.3785 12.3739 17.0752 11.9998 17.0752C11.6256 17.0752 11.3223 17.3785 11.3223 17.7527C11.3223 18.1269 11.6256 18.4302 11.9998 18.4302Z" fill="#007A7A"/>
<path d="M12 16.2525C11.7237 16.2525 11.5 16.0287 11.5 15.7525V13.0862C11.5 12.81 11.7237 12.5862 12 12.5862C13.6537 12.5862 15 11.24 15 9.58621C15 7.93246 13.6537 6.58621 12 6.58621C10.3463 6.58621 9 7.93246 9 9.58621C9 9.82746 9.02875 10.0687 9.085 10.3012C9.15 10.57 8.98625 10.84 8.7175 10.905C8.44875 10.97 8.17875 10.8062 8.11375 10.5375C8.0375 10.2275 8 9.90746 8 9.58496C8 7.37996 9.795 5.58496 12 5.58496C14.205 5.58496 16 7.37996 16 9.58496C16 11.6212 14.47 13.3075 12.5 13.5537V15.7512C12.5 16.0275 12.2763 16.2512 12 16.2512V16.2525Z" fill="#007A7A"/>
<path d="M12 21.5C6.76125 21.5 2.5 17.2387 2.5 12C2.5 6.76125 6.76125 2.5 12 2.5C17.2387 2.5 21.5 6.76125 21.5 12C21.5 17.2387 17.2387 21.5 12 21.5ZM12 3.5C7.3125 3.5 3.5 7.3125 3.5 12C3.5 16.6875 7.3125 20.5 12 20.5C16.6875 20.5 20.5 16.6875 20.5 12C20.5 7.3125 16.6875 3.5 12 3.5Z" fill="#007A7A"/>
</svg>
