<svg width="32" height="32" viewBox="0 0 32 32" fill="none" xmlns="http://www.w3.org/2000/svg">
<path d="M16.8696 6.5615C16.5396 6.39817 16.1396 6.53317 15.9762 6.86483C15.8129 7.19483 15.9496 7.59483 16.2796 7.75817C18.6729 8.93983 20.1012 11.5182 19.8329 14.1765C19.7962 14.5432 20.0629 14.8698 20.4296 14.9065C20.4529 14.9082 20.4746 14.9098 20.4979 14.9098C20.8362 14.9098 21.1262 14.6532 21.1596 14.3098C21.4846 11.1015 19.7596 7.98817 16.8696 6.56317V6.5615Z" fill="#00A19B"/>
<path d="M28.0514 27.21L21.0281 20.1816C22.4064 18.6133 23.2648 16.6633 23.4798 14.5433C23.7514 11.86 22.9614 9.23164 21.2548 7.14164C19.5498 5.05164 17.1314 3.75164 14.4481 3.48164C11.7631 3.20998 9.13476 3.99998 7.04643 5.70664C4.95643 7.41331 3.65643 9.82998 3.38643 12.5133C3.11476 15.1966 3.90476 17.825 5.61143 19.915C7.31643 22.005 9.73476 23.305 12.4181 23.575C12.7648 23.61 13.1098 23.6266 13.4531 23.6266C15.7714 23.6266 17.9998 22.835 19.8198 21.35C19.9098 21.2766 19.9981 21.1983 20.0848 21.1216L27.1098 28.1516C27.1098 28.1516 27.1181 28.1583 27.1214 28.1616C27.2498 28.285 27.4148 28.3483 27.5814 28.3483C27.7481 28.3483 27.9231 28.2833 28.0531 28.1533C28.3131 27.8933 28.3131 27.4716 28.0531 27.21H28.0514ZM18.9748 20.3166C17.1614 21.7966 14.8798 22.4816 12.5498 22.2466C10.2198 22.0116 8.12143 20.8833 6.64143 19.0683C5.16143 17.2533 4.47476 14.9733 4.71143 12.6433C4.94643 10.3133 6.07476 8.21498 7.8881 6.73498C9.4681 5.44498 11.4031 4.75831 13.4148 4.75831C13.7131 4.75831 14.0131 4.77331 14.3131 4.80331C16.6431 5.03831 18.7398 6.16664 20.2214 7.98164C21.7014 9.79498 22.3881 12.0766 22.1514 14.4066C21.9164 16.7366 20.7881 18.835 18.9731 20.315L18.9748 20.3166Z" fill="#00A19B"/>
</svg>
