<svg width="13" height="13" viewBox="0 0 13 13" fill="none" xmlns="http://www.w3.org/2000/svg">
<path fill-rule="evenodd" clip-rule="evenodd" d="M0.210517 0.210517C0.491206 -0.0701723 0.946294 -0.0701723 1.22698 0.210517L12.5473 11.5308C12.828 11.8115 12.828 12.2666 12.5473 12.5473C12.2666 12.828 11.8115 12.828 11.5308 12.5473L0.210517 1.22698C-0.0701723 0.946294 -0.0701723 0.491206 0.210517 0.210517Z" fill="#00A19B"/>
<path fill-rule="evenodd" clip-rule="evenodd" d="M12.5473 0.210517C12.828 0.491206 12.828 0.946294 12.5473 1.22698L1.22698 12.5473C0.946294 12.828 0.491206 12.828 0.210517 12.5473C-0.0701723 12.2666 -0.0701723 11.8115 0.210517 11.5308L11.5308 0.210517C11.8115 -0.0701723 12.2666 -0.0701723 12.5473 0.210517Z" fill="#00A19B"/>
</svg>
