<svg width="20" height="20" viewBox="0 0 20 20" fill="none" xmlns="http://www.w3.org/2000/svg">
<path d="M10 20C15.5228 20 20 15.5228 20 10C20 4.47715 15.5228 0 10 0C4.47715 0 0 4.47715 0 10C0 15.5228 4.47715 20 10 20Z" fill="#E1EFEF"/>
<path d="M9.6925 12.1142C9.85197 12.1154 10.0065 12.0589 10.1275 11.955L14.1275 8.42668C14.1837 8.37976 14.2289 8.32105 14.2599 8.25474C14.2909 8.18843 14.307 8.11613 14.307 8.04292C14.307 7.96972 14.2909 7.89742 14.2599 7.83111C14.2289 7.7648 14.1837 7.70609 14.1275 7.65917C14.0058 7.55657 13.8517 7.50032 13.6925 7.50032C13.5333 7.50032 13.3792 7.55657 13.2575 7.65917L9.69413 10.8033L6.1308 7.65917C6.00914 7.55642 5.85506 7.50007 5.69582 7.50007C5.53658 7.50007 5.3825 7.55642 5.26084 7.65917C5.20466 7.70609 5.15941 7.7648 5.1284 7.83111C5.09738 7.89742 5.0814 7.96972 5.0814 8.04292C5.0814 8.11613 5.09738 8.18843 5.1284 8.25474C5.15941 8.32105 5.20466 8.37976 5.26084 8.42668L9.26088 11.955C9.38099 12.0582 9.53417 12.1147 9.6925 12.1142Z" fill="#007A7A"/>
</svg>
