<svg width="44" height="44" viewBox="0 0 44 44" fill="none" xmlns="http://www.w3.org/2000/svg">
<path d="M20.8334 11.5002C20.8334 10.8559 21.3558 10.3335 22 10.3335C22.6443 10.3335 23.1667 10.8559 23.1667 11.5002V12.6668C23.1667 13.3111 22.6443 13.8335 22 13.8335C21.3558 13.8335 20.8334 13.3111 20.8334 12.6668V11.5002Z" fill="#00F3EA"/>
<path fill-rule="evenodd" clip-rule="evenodd" d="M22 27.8335C25.2218 27.8335 27.8334 25.2219 27.8334 22.0002C27.8334 18.7784 25.2218 16.1668 22 16.1668C18.7783 16.1668 16.1667 18.7784 16.1667 22.0002C16.1667 25.2219 18.7783 27.8335 22 27.8335ZM22 25.5002C23.933 25.5002 25.5 23.9332 25.5 22.0002C25.5 20.0672 23.933 18.5002 22 18.5002C20.067 18.5002 18.5 20.0672 18.5 22.0002C18.5 23.9332 20.067 25.5002 22 25.5002Z" fill="#00F3EA"/>
<path d="M22 30.1668C21.3558 30.1668 20.8334 30.6892 20.8334 31.3335V32.5002C20.8334 33.1445 21.3558 33.6668 22 33.6668C22.6443 33.6668 23.1667 33.1445 23.1667 32.5002V31.3335C23.1667 30.6892 22.6443 30.1668 22 30.1668Z" fill="#00F3EA"/>
<path d="M13.7505 15.4005C13.2948 14.9448 13.2948 14.2062 13.7505 13.7505C14.2061 13.2949 14.9448 13.2949 15.4004 13.7505L16.2252 14.5755C16.681 15.0311 16.681 15.7698 16.2252 16.2254C15.7697 16.6809 15.0309 16.6809 14.5754 16.2254L13.7505 15.4005Z" fill="#00F3EA"/>
<path d="M27.7747 27.7748C27.3191 28.2304 27.3191 28.9691 27.7747 29.4247L28.5997 30.2497C29.0553 30.7053 29.794 30.7053 30.2496 30.2497C30.7052 29.7941 30.7052 29.0554 30.2496 28.5998L29.4246 27.7748C28.969 27.3192 28.2303 27.3192 27.7747 27.7748Z" fill="#00F3EA"/>
<path d="M11.5 23.1668C10.8558 23.1668 10.3334 22.6445 10.3334 22.0002C10.3334 21.3559 10.8558 20.8335 11.5 20.8335H12.6667C13.311 20.8335 13.8334 21.3559 13.8334 22.0002C13.8334 22.6445 13.311 23.1668 12.6667 23.1668H11.5Z" fill="#00F3EA"/>
<path d="M30.1667 22.0002C30.1667 22.6445 30.6891 23.1668 31.3334 23.1668H32.5C33.1443 23.1668 33.6667 22.6445 33.6667 22.0002C33.6667 21.3559 33.1443 20.8335 32.5 20.8335H31.3334C30.6891 20.8335 30.1667 21.3559 30.1667 22.0002Z" fill="#00F3EA"/>
<path d="M14.7064 29.643C14.2129 30.0572 13.4769 29.9928 13.0628 29.4993C12.6486 29.0057 12.713 28.2699 13.2066 27.8556L14.1003 27.1058C14.5939 26.6916 15.3297 26.756 15.744 27.2495C16.1582 27.7431 16.0938 28.4789 15.6002 28.8932L14.7064 29.643Z" fill="#00F3EA"/>
<path d="M28.2561 16.7506C28.6702 17.2442 29.4061 17.3086 29.8997 16.8944L30.7933 16.1445C31.2869 15.7303 31.3513 14.9945 30.9372 14.5009C30.523 14.0072 29.7872 13.9429 29.2936 14.3572L28.3998 15.107C27.9063 15.5211 27.8419 16.2571 28.2561 16.7506Z" fill="#00F3EA"/>
</svg>
