<svg width="20" height="20" viewBox="0 0 20 20" fill="none" xmlns="http://www.w3.org/2000/svg">
<path d="M19 10C19 8.04529 18.3749 6.23751 17.3164 4.76172L16.333 5.5C15.9003 5.82446 15.3738 6 14.833 6H11.4746C11.0666 6.00015 10.6932 6.23075 10.5107 6.5957C10.2856 7.04617 10.4032 7.59223 10.793 7.91113L12.793 9.54785C14.498 10.9429 15.38 13.1073 15.1367 15.2969L15.1172 15.4756C15.0326 16.2366 14.8449 16.9834 14.5605 17.6943L14.5264 17.7773C17.2011 16.2173 19 13.3198 19 10ZM1 10C1 14.3386 4.07017 17.9588 8.15625 18.8096L8.52832 17.3262C8.75583 16.4156 8.31995 15.4695 7.48047 15.0498C5.97392 14.2965 5.1352 12.6478 5.41211 10.9863L5.54688 10.1797C5.71602 9.16451 4.83548 8.28398 3.82031 8.45312L1.06738 8.91211C1.02439 9.26883 1 9.63169 1 10ZM20 10C20 15.5228 15.5228 20 10 20V19C11.1257 19 12.202 18.7905 13.1953 18.4131L13.6328 17.3223C13.8836 16.6951 14.0485 16.0366 14.123 15.3652L14.1426 15.1855C14.3483 13.333 13.6018 11.5026 12.1592 10.3223L10.1592 8.68555C9.40769 8.07059 9.18292 7.01697 9.61719 6.14844C9.96909 5.44481 10.6879 5.00015 11.4746 5H14.833C15.1575 5 15.4738 4.8949 15.7334 4.7002L16.6904 3.98145C15.043 2.15133 12.6562 1 10 1C5.76473 1 2.21407 3.92578 1.25586 7.86621L3.65625 7.4668C5.348 7.1851 6.8149 8.652 6.5332 10.3438L6.39844 11.1514C6.19379 12.3798 6.8139 13.5983 7.92773 14.1553C9.18651 14.7847 9.83938 16.204 9.49805 17.5693L9.15039 18.958C9.43014 18.9842 9.7134 19 10 19V20C4.47715 20 0 15.5228 0 10C0 4.47715 4.47715 0 10 0C15.5228 0 20 4.47715 20 10Z" fill="#1C1C1C"/>
</svg>
