<svg preserveAspectRatio="none" width="100%" height="100%" overflow="visible" style="display: block;" viewBox="0 0 44 44" fill="none" xmlns="http://www.w3.org/2000/svg">
<g id="top-bar__btn-icon">
<g id="top-bar__btn-icon_2">
<path d="M21.96 34.92C15.0898 34.92 9.50003 29.3303 9.50003 22.46C9.50003 15.5898 15.0898 10 21.96 10C28.8303 10 34.42 15.5898 34.42 22.46C34.42 29.3303 28.8303 34.92 21.96 34.92ZM21.96 11.92C16.1483 11.92 11.4201 16.6483 11.4201 22.46C11.4201 28.2718 16.1483 33 21.96 33C27.7718 33 32.5 28.2718 32.5 22.46C32.5 16.6483 27.7718 11.92 21.96 11.92Z" fill="#00A19B"/>
<path d="M21 18.1599C21 17.4947 21.5239 17 22.1876 17C22.8514 17 23.3475 17.4809 23.3475 18.1599C23.3475 18.8389 22.8528 19.2907 22.1876 19.2907C21.5225 19.2907 21 18.796 21 18.1599ZM21.2259 27.1522V21.3971C21.2259 20.7887 21.5654 20.4492 22.1876 20.4492C22.8098 20.4492 23.1632 20.7887 23.1632 21.3971V27.1522C23.1632 27.7605 22.8237 28.1 22.1876 28.1C21.5516 28.1 21.2259 27.7605 21.2259 27.1522Z" fill="#00A19B"/>
</g>
</g>
</svg>
