<svg width="21" height="21" viewBox="0 0 21 21" fill="none" xmlns="http://www.w3.org/2000/svg">
<path d="M10.395 20.79C4.6627 20.79 0 16.1273 0 10.395C0 4.6627 4.6627 0 10.395 0C16.1273 0 20.79 4.6627 20.79 10.395C20.79 16.1273 16.1273 20.79 10.395 20.79ZM10.395 1.09421C5.26589 1.09421 1.09421 5.26589 1.09421 10.395C1.09421 15.5241 5.26589 19.6958 10.395 19.6958C15.5241 19.6958 19.6958 15.5241 19.6958 10.395C19.6958 5.26589 15.5241 1.09421 10.395 1.09421Z" fill="#1C1C1C"/>
<path d="M10.2994 12.6008C8.37225 12.6008 6.80342 11.032 6.80342 9.1048C6.80342 7.17762 8.37225 5.60879 10.2994 5.60879C12.2266 5.60879 13.7954 7.17762 13.7954 9.1048C13.7954 11.032 12.2266 12.6008 10.2994 12.6008ZM10.2994 6.703C8.97543 6.703 7.89763 7.7808 7.89763 9.1048C7.89763 10.4288 8.97543 11.5066 10.2994 11.5066C11.6234 11.5066 12.7012 10.4288 12.7012 9.1048C12.7012 7.7808 11.6234 6.703 10.2994 6.703Z" fill="#1C1C1C"/>
<path d="M16.0505 18.395C15.8645 18.395 15.6826 18.2993 15.58 18.1269C15.5266 18.0394 14.1849 15.9235 10.3715 15.9235C6.55821 15.9235 5.40382 18.0148 5.35458 18.1037C5.21097 18.3677 4.88133 18.4689 4.61599 18.328C4.35064 18.1871 4.24806 17.8602 4.38757 17.5935C4.44639 17.48 5.8839 14.8293 10.3715 14.8293C14.8592 14.8293 16.454 17.4554 16.521 17.5675C16.6756 17.8274 16.5908 18.1625 16.3309 18.3171C16.2433 18.369 16.1462 18.3937 16.0519 18.3937L16.0505 18.395Z" fill="#1C1C1C"/>
</svg>
