<svg preserveAspectRatio="none" width="100%" height="100%" overflow="visible" style="display: block;" viewBox="0 0 44 44" fill="none" xmlns="http://www.w3.org/2000/svg">
<g id="top-bar__btn-icon">
<g id="top-bar__btn-icon_2">
<path fill-rule="evenodd" clip-rule="evenodd" d="M13.4179 13.6679C13.8084 13.2774 14.4416 13.2774 14.8321 13.6679L30.5821 29.4179C30.9726 29.8084 30.9726 30.4416 30.5821 30.8321C30.1916 31.2226 29.5584 31.2226 29.1679 30.8321L13.4179 15.0821C13.0274 14.6916 13.0274 14.0584 13.4179 13.6679Z" fill="var(--fill-0, #00A19B)"/>
<path fill-rule="evenodd" clip-rule="evenodd" d="M30.5821 13.6679C30.9726 14.0584 30.9726 14.6916 30.5821 15.0821L14.8321 30.8321C14.4416 31.2226 13.8084 31.2226 13.4179 30.8321C13.0274 30.4416 13.0274 29.8084 13.4179 29.4179L29.1679 13.6679C29.5584 13.2774 30.1916 13.2774 30.5821 13.6679Z" fill="var(--fill-0, #00A19B)"/>
</g>
</g>
</svg>
